<?xml version="1.0" encoding="UTF-8" standalone="no"?>
<svg
   viewBox="0 0 36 36"
   version="1.1"
   id="svg5"
   sodipodi:docname="1f62d.svg"
   inkscape:version="1.3.2 (091e20ef0f, 2023-11-25, custom)"
   xmlns:inkscape="http://www.inkscape.org/namespaces/inkscape"
   xmlns:sodipodi="http://sodipodi.sourceforge.net/DTD/sodipodi-0.dtd"
   xmlns="http://www.w3.org/2000/svg"
   xmlns:svg="http://www.w3.org/2000/svg">
  <defs
     id="defs5">
    <filter
       style="color-interpolation-filters:sRGB;"
       inkscape:label="Greyscale"
       id="filter1"
       x="0"
       y="0"
       width="1"
       height="1">
      <feColorMatrix
         values="0.21 0.72 0.072 0 0 0.21 0.72 0.072 0 0 0.21 0.72 0.072 0 0 0 0 0 1 0 "
         id="feColorMatrix1" />
    </filter>
    <filter
       style="color-interpolation-filters:sRGB;"
       inkscape:label="Greyscale"
       id="filter2"
       x="0"
       y="0"
       width="1"
       height="1">
      <feColorMatrix
         values="0.21 0.72 0.072 0 0 0.21 0.72 0.072 0 0 0.21 0.72 0.072 0 0 0 0 0 1 0 "
         id="feColorMatrix2" />
    </filter>
  </defs>
  <sodipodi:namedview
     id="namedview5"
     pagecolor="#ffffff"
     bordercolor="#666666"
     borderopacity="1.0"
     inkscape:showpageshadow="2"
     inkscape:pageopacity="0.0"
     inkscape:pagecheckerboard="0"
     inkscape:deskcolor="#d1d1d1"
     inkscape:zoom="11.083333"
     inkscape:cx="14.887218"
     inkscape:cy="31.714287"
     inkscape:window-width="1468"
     inkscape:window-height="973"
     inkscape:window-x="35"
     inkscape:window-y="32"
     inkscape:window-maximized="0"
     inkscape:current-layer="svg5" />
  <path
     fill="#ffcc4d"
     d="M 36,18 C 36,27.941 27.941,36 18,36 8.059,36 0,27.941 0,18 0,8.059 8.059,0 18,0 27.941,0 36,8.059 36,18"
     id="path1"
     style="display:inline;fill:#cf597e;fill-opacity:1" />
  <path
     fill="#664500"
     d="M22 27c0 2.763-1.791 3-4 3-2.21 0-4-.237-4-3 0-2.761 1.79-6 4-6 2.209 0 4 3.239 4 6zm8-12c-.124 0-.25-.023-.371-.072-5.229-2.091-7.372-5.241-7.461-5.374-.307-.46-.183-1.081.277-1.387.459-.306 1.077-.184 1.385.274.019.027 1.93 2.785 6.541 4.629.513.206.763.787.558 1.3-.157.392-.533.63-.929.63zM6 15c-.397 0-.772-.238-.929-.629-.205-.513.044-1.095.557-1.3 4.612-1.844 6.523-4.602 6.542-4.629.308-.456.929-.577 1.387-.27.457.308.581.925.275 1.383-.089.133-2.232 3.283-7.46 5.374C6.25 14.977 6.124 15 6 15z"
     id="path2"
     style="filter:url(#filter2)" />
  <path
     fill="#5DADEC"
     d="M24 16h4v19l-4-.046V16zM8 35l4-.046V16H8v19z"
     id="path3"
     style="fill:#e9ebe5;fill-opacity:1" />
  <path
     fill="#664500"
     d="M14.999 18c-.15 0-.303-.034-.446-.105-3.512-1.756-7.07-.018-7.105 0-.495.249-1.095.046-1.342-.447-.247-.494-.047-1.095.447-1.342.182-.09 4.498-2.197 8.895 0 .494.247.694.848.447 1.342-.176.35-.529.552-.896.552zm14 0c-.15 0-.303-.034-.446-.105-3.513-1.756-7.07-.018-7.105 0-.494.248-1.094.047-1.342-.447-.247-.494-.047-1.095.447-1.342.182-.09 4.501-2.196 8.895 0 .494.247.694.848.447 1.342-.176.35-.529.552-.896.552z"
     id="path4"
     style="filter:url(#filter1)" />
  <ellipse
     fill="#5DADEC"
     cx="18"
     cy="34"
     rx="18"
     ry="2"
     id="ellipse4"
     style="fill:#e9ebe5;fill-opacity:1" />
  <ellipse
     fill="#E75A70"
     cx="18"
     cy="27"
     rx="3"
     ry="2"
     id="ellipse5"
     style="fill:#cf597e;fill-opacity:1" />
</svg>
