<?xml version="1.0" encoding="UTF-8" standalone="no"?>
<svg
   viewBox="0 0 36 36"
   version="1.1"
   id="svg2"
   sodipodi:docname="1f642.svg"
   inkscape:version="1.3.2 (091e20ef0f, 2023-11-25, custom)"
   xmlns:inkscape="http://www.inkscape.org/namespaces/inkscape"
   xmlns:sodipodi="http://sodipodi.sourceforge.net/DTD/sodipodi-0.dtd"
   xmlns="http://www.w3.org/2000/svg"
   xmlns:svg="http://www.w3.org/2000/svg">
  <defs
     id="defs2">
    <filter
       style="color-interpolation-filters:sRGB;"
       inkscape:label="Greyscale"
       id="filter2"
       x="0"
       y="0"
       width="1"
       height="1">
      <feColorMatrix
         values="0.21 0.72 0.072 0 0 0.21 0.72 0.072 0 0 0.21 0.72 0.072 0 0 0 0 0 1 0 "
         id="feColorMatrix2" />
    </filter>
    <filter
       style="color-interpolation-filters:sRGB;"
       inkscape:label="Greyscale"
       id="filter3"
       x="0"
       y="0"
       width="1"
       height="1">
      <feColorMatrix
         values="0.21 0.72 0.072 0 0 0.21 0.72 0.072 0 0 0.21 0.72 0.072 0 0 0 0 0 1 0 "
         id="feColorMatrix3" />
    </filter>
    <filter
       style="color-interpolation-filters:sRGB;"
       inkscape:label="Greyscale"
       id="filter4"
       x="0"
       y="0"
       width="1"
       height="1">
      <feColorMatrix
         values="0.21 0.72 0.072 0 0 0.21 0.72 0.072 0 0 0.21 0.72 0.072 0 0 0 0 0 1 0 "
         id="feColorMatrix4" />
    </filter>
  </defs>
  <sodipodi:namedview
     id="namedview2"
     pagecolor="#ffffff"
     bordercolor="#666666"
     borderopacity="1.0"
     inkscape:showpageshadow="2"
     inkscape:pageopacity="0.0"
     inkscape:pagecheckerboard="0"
     inkscape:deskcolor="#d1d1d1"
     inkscape:zoom="22.166667"
     inkscape:cx="18"
     inkscape:cy="18"
     inkscape:window-width="960"
     inkscape:window-height="1011"
     inkscape:window-x="26"
     inkscape:window-y="23"
     inkscape:window-maximized="0"
     inkscape:current-layer="svg2" />
  <circle
     fill="#FFCC4D"
     cx="18"
     cy="18"
     r="18"
     id="circle1"
     style="fill:#9ccb86;fill-opacity:1" />
  <path
     fill="#664500"
     d="M10.515 23.621C10.56 23.8 11.683 28 18 28c6.318 0 7.44-4.2 7.485-4.379.055-.217-.043-.442-.237-.554-.195-.111-.439-.078-.6.077C24.629 23.163 22.694 25 18 25s-6.63-1.837-6.648-1.855C11.256 23.05 11.128 23 11 23c-.084 0-.169.021-.246.064-.196.112-.294.339-.239.557z"
     id="path1"
     style="filter:url(#filter4)" />
  <ellipse
     fill="#664500"
     cx="12"
     cy="13.5"
     rx="2.5"
     ry="3.5"
     id="ellipse1"
     style="filter:url(#filter3)" />
  <ellipse
     fill="#664500"
     cx="24"
     cy="13.5"
     rx="2.5"
     ry="3.5"
     id="ellipse2"
     style="filter:url(#filter2)" />
</svg>
