<?xml version="1.0" encoding="UTF-8" standalone="no"?>
<svg
   viewBox="0 0 36 36"
   version="1.1"
   id="svg6"
   sodipodi:docname="1f97a.svg"
   inkscape:version="1.3.2 (091e20ef0f, 2023-11-25, custom)"
   xmlns:inkscape="http://www.inkscape.org/namespaces/inkscape"
   xmlns:sodipodi="http://sodipodi.sourceforge.net/DTD/sodipodi-0.dtd"
   xmlns="http://www.w3.org/2000/svg"
   xmlns:svg="http://www.w3.org/2000/svg">
  <defs
     id="defs6">
    <filter
       style="color-interpolation-filters:sRGB;"
       inkscape:label="Greyscale"
       id="filter6"
       x="0"
       y="0"
       width="1"
       height="1">
      <feColorMatrix
         values="0.21 0.72 0.072 0 0 0.21 0.72 0.072 0 0 0.21 0.72 0.072 0 0 0 0 0 1 0 "
         id="feColorMatrix6" />
    </filter>
    <filter
       style="color-interpolation-filters:sRGB;"
       inkscape:label="Greyscale"
       id="filter1"
       x="0"
       y="0"
       width="1"
       height="1">
      <feColorMatrix
         values="0.21 0.72 0.072 0 0 0.21 0.72 0.072 0 0 0.21 0.72 0.072 0 0 0 0 0 1 0 "
         id="feColorMatrix1"
         result="fbSourceGraphic" />
      <feColorMatrix
         result="fbSourceGraphicAlpha"
         in="fbSourceGraphic"
         values="0 0 0 -1 0 0 0 0 -1 0 0 0 0 -1 0 0 0 0 1 0"
         id="feColorMatrix3" />
      <feColorMatrix
         id="feColorMatrix4"
         values="0.21 0.72 0.072 0 0 0.21 0.72 0.072 0 0 0.21 0.72 0.072 0 0 0 0 0 1 0 "
         in="fbSourceGraphic"
         result="fbSourceGraphic" />
      <feColorMatrix
         result="fbSourceGraphicAlpha"
         in="fbSourceGraphic"
         values="0 0 0 -1 0 0 0 0 -1 0 0 0 0 -1 0 0 0 0 1 0"
         id="feColorMatrix8" />
      <feColorMatrix
         id="feColorMatrix9"
         values="0.21 0.72 0.072 0 0 0.21 0.72 0.072 0 0 0.21 0.72 0.072 0 0 0 0 0 1 0 "
         in="fbSourceGraphic" />
    </filter>
    <filter
       style="color-interpolation-filters:sRGB;"
       inkscape:label="Greyscale"
       id="filter2"
       x="0"
       y="0"
       width="1"
       height="1">
      <feColorMatrix
         values="0.21 0.72 0.072 0 0 0.21 0.72 0.072 0 0 0.21 0.72 0.072 0 0 0 0 0 1 0 "
         id="feColorMatrix2"
         result="fbSourceGraphic" />
      <feColorMatrix
         result="fbSourceGraphicAlpha"
         in="fbSourceGraphic"
         values="0 0 0 -1 0 0 0 0 -1 0 0 0 0 -1 0 0 0 0 1 0"
         id="feColorMatrix5" />
      <feColorMatrix
         id="feColorMatrix7"
         values="0.21 0.72 0.072 0 0 0.21 0.72 0.072 0 0 0.21 0.72 0.072 0 0 0 0 0 1 0 "
         in="fbSourceGraphic"
         result="fbSourceGraphic" />
      <feColorMatrix
         result="fbSourceGraphicAlpha"
         in="fbSourceGraphic"
         values="0 0 0 -1 0 0 0 0 -1 0 0 0 0 -1 0 0 0 0 1 0"
         id="feColorMatrix10" />
      <feColorMatrix
         id="feColorMatrix11"
         values="0.21 0.72 0.072 0 0 0.21 0.72 0.072 0 0 0.21 0.72 0.072 0 0 0 0 0 1 0 "
         in="fbSourceGraphic" />
    </filter>
  </defs>
  <sodipodi:namedview
     id="namedview6"
     pagecolor="#ffffff"
     bordercolor="#666666"
     borderopacity="1.0"
     inkscape:showpageshadow="2"
     inkscape:pageopacity="0.0"
     inkscape:pagecheckerboard="0"
     inkscape:deskcolor="#d1d1d1"
     inkscape:zoom="22.166667"
     inkscape:cx="16.443609"
     inkscape:cy="11.097744"
     inkscape:window-width="1465"
     inkscape:window-height="991"
     inkscape:window-x="26"
     inkscape:window-y="23"
     inkscape:window-maximized="0"
     inkscape:current-layer="svg6" />
  <circle
     cx="18"
     cy="18"
     r="18"
     fill="#FFCC4D"
     id="circle1"
     style="fill:#e88471;fill-opacity:1" />
  <path
     fill="#65471B"
     d="M20.996 28.477a.978.978 0 0 1-.309-.049 8.647 8.647 0 0 0-5.375 0 1 1 0 1 1-.617-1.902 10.633 10.633 0 0 1 6.609 0c.525.172.813.736.643 1.26a1.002 1.002 0 0 1-.951.691Zm7.998-18.466A1.005 1.005 0 0 0 28.011 9c-.067-.001-1.653-.056-3.304-1.707a1 1 0 1 0-1.414 1.414C25.56 10.974 27.901 11 28 11a.995.995 0 0 0 .994-.989ZM12.707 8.707a.998.998 0 0 0-.324-1.63 1 1 0 0 0-1.09.216C9.652 8.934 8.075 8.998 7.99 9A1 1 0 0 0 8 11c.099 0 2.44-.026 4.707-2.293Z"
     id="path1"
     style="filter:url(#filter6)" />
  <path
     fill="#FFF"
     d="M24.5 23a5.5 5.5 0 1 0 0-11 5.5 5.5 0 0 0 0 11Z"
     id="path2" />
  <path
     fill="#292F33"
     d="M24.5 22a5 5 0 1 0 0-10 5 5 0 0 0 0 10Z"
     id="path3"
     style="filter:url(#filter2);fill:#4b4b4b;fill-opacity:1" />
  <path
     fill="#FFF"
     d="M24.337 16.836c1.044-1.046 1.23-2.552.417-3.364-.813-.813-2.32-.625-3.363.42-1.045 1.046-1.231 2.552-.418 3.364.814.813 2.32.625 3.364-.42Zm3.288 2.845c.458-.459.54-1.12.183-1.477-.357-.357-1.019-.274-1.478.185-.458.459-.54 1.12-.183 1.477.357.357 1.019.275 1.478-.184ZM11.5 23a5.5 5.5 0 1 0 0-11 5.5 5.5 0 0 0 0 11Z"
     id="path4" />
  <path
     fill="#292F33"
     d="M11.5 22a5 5 0 1 0 0-10 5 5 0 0 0 0 10Z"
     id="path5"
     style="filter:url(#filter1);fill:#4b4b4b;fill-opacity:1" />
  <path
     fill="#FFF"
     d="M11.337 16.836c1.044-1.046 1.23-2.552.417-3.364-.813-.813-2.32-.625-3.363.42-1.045 1.046-1.231 2.552-.418 3.364.814.813 2.32.625 3.364-.42Zm3.287 2.845c.46-.459.541-1.12.184-1.477-.357-.357-1.019-.274-1.478.185-.458.459-.54 1.12-.183 1.477.357.357 1.019.275 1.477-.184Z"
     id="path6" />
</svg>
