<?xml version="1.0" encoding="UTF-8" standalone="no"?>
<!-- Created with Inkscape (http://www.inkscape.org/) -->

<svg
   version="1.0"
   width="290"
   height="105"
   id="svg2928"
   sodipodi:docname="JLU_Giessen-Logo-1.svg"
   inkscape:export-filename="JLU_Giessen-Logo-wot.svg"
   inkscape:export-xdpi="170.4016"
   inkscape:export-ydpi="170.4016"
   inkscape:version="1.3.2 (091e20ef0f, 2023-11-25, custom)"
   xmlns:inkscape="http://www.inkscape.org/namespaces/inkscape"
   xmlns:sodipodi="http://sodipodi.sourceforge.net/DTD/sodipodi-0.dtd"
   xmlns="http://www.w3.org/2000/svg"
   xmlns:svg="http://www.w3.org/2000/svg">
  <sodipodi:namedview
     id="namedview1"
     pagecolor="#000000"
     bordercolor="#666666"
     borderopacity="1.0"
     inkscape:showpageshadow="2"
     inkscape:pageopacity="0.0"
     inkscape:pagecheckerboard="0"
     inkscape:deskcolor="#d1d1d1"
     inkscape:zoom="2.374138"
     inkscape:cx="65.70806"
     inkscape:cy="32.643427"
     inkscape:window-width="960"
     inkscape:window-height="1011"
     inkscape:window-x="26"
     inkscape:window-y="23"
     inkscape:window-maximized="0"
     inkscape:current-layer="svg2928" />
  <defs
     id="defs2930">
    <clipPath
       id="clipPath119">
      <path
         d="M 335.77,705.802 L 561.12,705.802 L 561.12,786.171 L 335.77,786.171 L 335.77,705.802 z"
         id="path121" />
    </clipPath>
    <clipPath
       id="clipPath105">
      <path
         d="M 335.77,705.802 L 561.12,705.802 L 561.12,786.171 L 335.77,786.171 L 335.77,705.802 z"
         id="path107" />
    </clipPath>
    <clipPath
       id="clipPath75">
      <path
         d="M 335.77,705.802 L 561.12,705.802 L 561.12,786.171 L 335.77,786.171 L 335.77,705.802 z"
         id="path77" />
    </clipPath>
    <clipPath
       id="clipPath17">
      <path
         d="M 335.77,705.802 L 561.12,705.802 L 561.12,786.171 L 335.77,786.171 L 335.77,705.802 z"
         id="path19" />
    </clipPath>
  </defs>
  <path
     id="path79"
     style="fill:#2e2933;fill-opacity:1"
     d="M 501.878 786.1689 C 494.99101 786.1689 493.38269 780.67877 493.38269 777.34077 C 493.38269 771.99278 496.90763 768.65327 502.04362 768.65327 C 505.71362 768.65327 508.15031 770.57183 509.04831 771.30483 L 509.04831 777.57827 L 501.878 777.57827 L 501.878 775.56577 L 506.87331 775.56577 L 506.87331 772.41733 C 506.47031 772.08633 504.50543 770.66733 501.92644 770.66733 C 500.27144 770.66733 498.4475 771.23452 497.2405 772.55952 C 496.0575 773.88552 495.70144 775.68396 495.70144 777.48296 C 495.70144 779.13896 496.151 784.25171 501.878 784.25171 C 505.738 784.25171 506.47056 781.64796 506.77956 780.58296 L 508.7905 781.15171 C 508.4815 782.35971 507.53499 786.1689 501.878 786.1689 z M 371.72331 786.16733 C 367.95932 786.16733 365.78269 784.10839 365.78269 781.4814 C 365.78269 778.0974 369.12075 777.31546 371.32175 776.79546 C 374.75475 775.96746 376.45769 775.54027 376.45769 773.55327 C 376.45769 771.65827 374.58762 770.66577 372.24362 770.66577 C 370.98963 770.66577 368.64631 771.0219 367.69831 772.84389 C 367.36831 773.48289 367.27387 774.19246 367.24987 774.57046 L 365.12019 774.38139 C 365.14419 773.9324 365.16775 773.22258 365.54675 772.29858 C 366.42275 770.21658 368.26794 768.65327 372.33894 768.65327 C 376.19593 768.65327 378.61081 770.9029 378.61081 773.71889 C 378.61081 777.43389 375.05925 778.24015 371.95925 778.92514 C 368.85825 779.61214 367.91237 780.15615 367.91237 781.62514 C 367.91237 783.73114 370.34963 784.15639 371.81862 784.15639 C 375.32062 784.15639 375.81881 782.14521 375.93581 780.91421 L 378.0905 781.07983 C 377.9725 784.41683 375.36831 786.16733 371.72331 786.16733 z M 416.6905 786.16733 C 412.9255 786.16733 410.74831 784.10839 410.74831 781.4814 C 410.74831 778.0974 414.08481 777.31546 416.28581 776.79546 C 419.71781 775.96746 421.42175 775.54027 421.42175 773.55327 C 421.42175 771.65827 419.55225 770.66577 417.20925 770.66577 C 415.95525 770.66577 413.6115 771.0219 412.6655 772.84389 C 412.3355 773.48289 412.2395 774.19246 412.2155 774.57046 L 410.08425 774.38139 C 410.10825 773.9324 410.13237 773.22258 410.51237 772.29858 C 411.38737 770.21658 413.23457 768.65327 417.30456 768.65327 C 421.16256 768.65327 423.57644 770.9029 423.57644 773.71889 C 423.57644 777.43389 420.02643 778.24015 416.92644 778.92514 C 413.82544 779.61214 412.878 780.15615 412.878 781.62514 C 412.878 783.73114 415.31525 784.15639 416.78425 784.15639 C 420.28525 784.15639 420.78344 782.14521 420.90144 780.91421 L 423.05456 781.07983 C 422.93656 784.41683 420.3335 786.16733 416.6905 786.16733 z M 342.82175 785.88452 L 342.82175 774.24077 C 342.82175 772.84477 342.84537 770.66577 340.31237 770.66577 C 337.94538 770.66577 337.83012 772.89015 337.78112 774.05014 L 335.77019 773.76577 C 335.77019 773.43477 335.7465 773.08077 335.8405 772.44077 C 336.4095 768.93877 338.91638 768.65327 340.31237 768.65327 C 345.07037 768.65327 345.07175 772.79596 345.07175 774.35796 L 345.07175 785.88452 L 342.82175 785.88452 z M 349.35925 785.88452 L 349.35925 776.08452 C 349.35925 773.07952 349.64369 768.65327 356.05769 768.65327 C 362.68368 768.65327 362.68425 773.83752 362.68425 776.08452 L 362.68425 785.88452 L 360.43737 785.88452 L 360.43737 776.10952 C 360.43737 773.05652 360.03462 770.66577 355.86862 770.66577 C 351.60863 770.66577 351.60925 774.04952 351.60925 776.10952 L 351.60925 785.88452 L 349.35925 785.88452 z M 379.57175 785.88452 L 379.57175 783.87202 L 385.13425 783.87202 L 385.13425 768.93764 L 387.38269 768.93764 L 387.38269 783.87202 L 392.99362 783.87202 L 392.99362 785.88452 L 379.57175 785.88452 z M 394.58894 785.88452 L 394.58894 776.08452 C 394.58894 773.07952 394.87282 768.65327 401.28581 768.65327 C 407.9128 768.65327 407.91237 773.83752 407.91237 776.08452 L 407.91237 785.88452 L 405.6655 785.88452 L 405.6655 776.10952 C 405.6655 773.05652 405.26274 770.66577 401.09675 770.66577 C 396.83775 770.66577 396.83737 774.04952 396.83737 776.10952 L 396.83737 785.88452 L 394.58894 785.88452 z M 437.09675 785.88452 L 437.09675 768.93764 L 447.69675 768.93764 L 447.69675 770.95015 L 439.34362 770.95015 L 439.34362 785.88452 L 437.09675 785.88452 z M 449.87019 785.88452 L 449.87019 768.93764 L 452.11706 768.93764 L 452.11706 785.88452 L 449.87019 785.88452 z M 456.66237 785.88452 L 456.66237 768.93764 L 469.32644 768.93764 L 469.32644 770.95015 L 458.91081 770.95015 L 458.91081 776.67827 L 468.28269 776.67827 L 468.28269 778.68921 L 458.91081 778.68921 L 458.91081 783.87202 L 468.92175 783.87202 L 468.92175 785.88452 L 456.66237 785.88452 z M 472.33112 785.88452 L 472.33112 768.93764 L 478.8155 768.93764 C 479.7855 768.93764 480.99225 768.93783 482.45925 769.52983 C 484.06925 770.16883 485.13425 771.94408 485.13425 773.86108 C 485.13425 775.18608 484.56593 777.17483 481.96394 777.95483 C 484.16493 779.06883 484.30769 780.93727 484.30769 781.55327 C 484.30769 782.80627 483.71431 784.03777 482.64831 784.86577 C 481.39431 785.83677 479.73931 785.88452 478.69831 785.88452 L 472.33112 785.88452 z M 488.27956 785.88452 L 488.27956 768.93764 L 490.528 768.93764 L 490.528 785.88452 L 488.27956 785.88452 z M 474.578 783.87202 L 477.96237 783.87202 C 479.83237 783.87202 482.10456 783.87189 482.10456 781.26889 C 482.10456 778.7599 479.73931 778.78452 478.24831 778.78452 L 474.578 778.78452 L 474.578 783.87202 z M 474.578 776.77358 L 478.50925 776.77358 C 479.88125 776.77358 482.8155 776.77308 482.8155 773.86108 C 482.8155 770.92709 479.97662 770.95015 478.79362 770.95015 L 474.578 770.95015 L 474.578 776.77358 z M 426.87956 776.10952 L 426.87956 774.02671 L 433.24675 774.02671 L 433.24675 776.10952 L 426.87956 776.10952 z M 511.32175 776.10952 L 511.32175 774.02671 L 517.68894 774.02671 L 517.68894 776.10952 L 511.32175 776.10952 z M 336.6155 764.06108 L 336.6155 762.71264 L 560.93425 762.71264 L 560.93425 764.06108 L 336.6155 764.06108 z M 504.97331 757.76733 C 501.21032 757.76733 499.03425 755.70839 499.03425 753.08139 C 499.03425 749.6974 502.36975 748.91646 504.57175 748.39546 C 508.00375 747.56646 509.70769 747.14127 509.70769 745.15327 C 509.70769 743.25927 507.83775 742.26577 505.49675 742.26577 C 504.24075 742.26577 501.89687 742.61833 500.94987 744.44233 C 500.61887 745.08133 500.52544 745.79146 500.50144 746.17046 L 498.37175 745.9814 C 498.39575 745.5314 498.41819 744.82258 498.79519 743.89858 C 499.67119 741.81658 501.5195 740.25171 505.5905 740.25171 C 509.4465 740.25171 511.86237 742.5019 511.86237 745.31889 C 511.86237 749.03389 508.31025 749.83971 505.20925 750.52671 C 502.10925 751.21271 501.16394 751.75658 501.16394 753.22358 C 501.16394 755.32958 503.60063 755.75483 505.06862 755.75483 C 508.57262 755.75483 509.06781 753.74364 509.18581 752.51265 L 511.3405 752.67827 C 511.2225 756.01527 508.61731 757.76733 504.97331 757.76733 z M 359.12644 757.51733 L 359.12644 743.36108 C 359.12644 735.27009 361.42438 727.28158 364.83737 720.94858 C 371.27037 709.01859 381.2905 705.80014 381.2905 705.80014 C 381.2905 705.80014 391.30907 709.01859 397.74206 720.94858 C 401.15706 727.28158 403.45144 735.27009 403.45144 743.36108 L 403.45144 757.51733 L 359.12644 757.51733 z M 535.61394 757.50483 L 535.61394 755.57827 L 537.53894 755.57827 L 537.53894 757.50483 L 535.61394 757.50483 z M 542.99519 757.50483 L 542.99519 755.57827 L 544.92019 755.57827 L 544.92019 757.50483 L 542.99519 757.50483 z M 409.4905 757.48452 L 409.4905 747.68608 C 409.4905 744.67809 409.77551 740.25171 416.1905 740.25171 C 422.81649 740.25171 422.8155 745.43708 422.8155 747.68608 L 422.8155 757.48452 L 420.56862 757.48452 L 420.56862 747.70796 C 420.56862 744.65596 420.16643 742.26577 416.00144 742.26577 C 411.74044 742.26577 411.7405 745.64896 411.7405 747.70796 L 411.7405 757.48452 L 409.4905 757.48452 z M 426.84675 757.48452 L 426.84675 740.53764 L 428.97644 740.53764 L 428.97644 753.83921 L 429.02331 753.83921 L 437.87644 740.53764 L 440.17175 740.53764 L 440.17175 757.48452 L 438.0405 757.48452 L 438.0405 744.18296 L 437.99362 744.18296 L 429.14362 757.48452 L 426.84675 757.48452 z M 445.03425 757.48452 L 445.03425 740.53764 L 447.28269 740.53764 L 447.28269 757.48452 L 445.03425 757.48452 z M 449.578 757.48452 L 456.13425 740.53764 L 458.42956 740.53764 L 465.05769 757.48452 L 462.78425 757.48452 L 458.19362 745.17671 C 457.88562 744.30171 457.55462 743.32839 457.31862 742.40639 L 457.27019 742.40639 C 456.91419 743.77839 456.84237 743.96933 456.51237 744.89233 L 456.39362 745.17671 L 451.99206 757.48452 L 449.578 757.48452 z M 467.0905 757.48452 L 467.0905 740.53764 L 479.75456 740.53764 L 479.75456 742.54858 L 469.3405 742.54858 L 469.3405 748.27671 L 478.71237 748.27671 L 478.71237 750.28921 L 469.3405 750.28921 L 469.3405 755.47358 L 479.35144 755.47358 L 479.35144 757.48452 L 467.0905 757.48452 z M 482.89831 757.48452 L 482.89831 740.53764 L 485.14675 740.53764 L 485.14675 748.01733 L 487.72644 748.01733 C 489.59543 748.01733 490.3755 747.85177 492.7905 744.04077 L 495.0155 740.53764 L 497.83269 740.53764 L 494.87331 745.15327 C 493.54831 747.21227 492.53044 747.82627 491.67644 748.22827 L 491.67644 748.27671 C 494.56443 748.65571 496.43581 750.1229 496.43581 752.84389 C 496.43581 754.61889 495.51125 756.37152 493.78425 757.03452 C 492.67025 757.46052 491.58187 757.48452 490.39987 757.48452 L 482.89831 757.48452 z M 515.26862 757.48452 L 515.26862 740.53764 L 517.51862 740.53764 L 517.51862 757.48452 L 515.26862 757.48452 z M 519.66081 757.48452 L 519.66081 755.47358 L 525.22331 755.47358 L 525.22331 740.53764 L 527.47175 740.53764 L 527.47175 755.47358 L 533.07956 755.47358 L 533.07956 757.48452 L 519.66081 757.48452 z M 539.11394 757.48452 L 532.60612 740.53764 L 534.97331 740.53764 L 536.84362 745.69702 L 543.91862 745.69702 L 545.90925 740.53764 L 548.4405 740.53764 L 541.52956 757.48452 L 539.11394 757.48452 z M 547.70769 757.48452 L 547.70769 755.47358 L 553.26862 755.47358 L 553.26862 740.53764 L 555.5155 740.53764 L 555.5155 755.47358 L 561.12644 755.47358 L 561.12644 757.48452 L 547.70769 757.48452 z M 360.6155 756.02671 L 401.96237 756.02671 L 401.96237 743.36108 C 401.96237 735.53809 399.73656 727.79139 396.42956 721.65639 C 393.34456 715.9344 389.40556 712.31414 386.25456 710.12514 C 384.68456 709.03815 383.30875 708.30121 382.32175 707.83921 C 381.89275 707.63621 381.5435 707.49021 381.2905 707.38921 C 381.0375 707.49021 380.68712 707.63621 380.25612 707.83921 C 379.27212 708.30121 377.89343 709.03815 376.32644 710.12514 C 373.17344 712.31414 369.23431 715.9344 366.14831 721.65639 C 362.84131 727.79139 360.6155 735.53809 360.6155 743.36108 L 360.6155 756.02671 z M 540.25144 755.70952 L 540.29831 755.70952 C 540.65431 754.33552 541.03325 753.29339 541.45925 752.18139 L 543.23269 747.47202 L 537.48269 747.47202 L 539.35144 752.46733 C 539.75244 753.52933 540.03844 754.59652 540.25144 755.70952 z M 485.14675 755.61577 L 490.49519 755.61577 C 491.37019 755.61577 492.1025 755.51977 492.8155 755.14077 C 493.5225 754.76277 494.1155 753.90989 494.1155 752.84389 C 494.1155 751.8269 493.52275 750.80939 492.64675 750.43139 C 491.72475 750.0284 490.96687 750.02827 489.94987 750.02827 L 485.14675 750.02827 L 485.14675 755.61577 z M 362.71081 753.14233 C 362.71081 753.14233 362.94675 751.49064 362.94675 747.36264 C 362.94675 743.88065 362.59362 741.22671 362.59362 741.22671 C 362.59362 741.22671 369.37557 742.70133 376.62956 742.64233 C 376.82456 739.86434 376.86956 734.02251 376.45456 728.53452 C 376.39356 727.73952 376.23569 726.20471 376.15769 725.35171 C 375.68569 720.16071 374.3905 714.97046 374.3905 714.97046 C 376.2405 715.18546 378.04563 715.33096 379.34362 715.38296 C 380.52762 715.43096 381.2905 715.39858 381.2905 715.39858 C 381.2905 715.39858 382.05338 715.43096 383.23737 715.38296 C 384.53537 715.33096 386.3395 715.18546 388.1905 714.97046 C 388.1905 714.97046 386.89319 720.16071 386.42019 725.35171 C 386.34319 726.20471 386.18487 727.73952 386.12487 728.53452 C 385.70987 734.02251 385.75431 739.86434 385.94831 742.64233 C 393.2023 742.70133 399.98425 741.22671 399.98425 741.22671 C 399.98425 741.22671 399.63112 743.88065 399.63112 747.36264 C 399.63112 751.49064 399.86862 753.14233 399.86862 753.14233 C 399.86862 753.14233 394.84962 752.06596 390.01862 751.60796 C 385.18863 751.15196 381.2905 751.23452 381.2905 751.23452 C 381.2905 751.23452 377.39024 751.15196 372.55925 751.60796 C 367.72925 752.06596 362.71081 753.14233 362.71081 753.14233 z M 363.41237 752.36577 C 365.04337 752.04177 368.82544 751.33777 372.50144 750.99077 C 377.20643 750.54677 381.0375 750.60921 381.2905 750.61421 C 381.5425 750.60921 385.37144 750.54677 390.07644 750.99077 C 393.75143 751.33777 397.53606 752.04177 399.16706 752.36577 C 399.09806 751.47877 399.00925 749.87064 399.00925 747.36264 C 399.00925 745.03165 399.16787 743.06727 399.27487 742.00327 C 397.22488 742.39127 391.73318 743.31221 385.94519 743.26421 L 385.36862 743.25952 L 385.32956 742.68608 C 385.13556 739.89009 385.08969 734.0092 385.50769 728.48921 C 385.56769 727.69021 385.72244 726.15246 385.80144 725.29546 C 386.16044 721.33946 386.99625 717.38352 387.38425 715.68452 C 385.83225 715.84852 384.36481 715.95827 383.26081 716.00327 C 382.17881 716.04727 381.4395 716.02489 381.2905 716.01889 C 381.1415 716.02489 380.40162 716.04727 379.31862 716.00327 C 378.21463 715.95827 376.74775 715.84852 375.19675 715.68452 C 375.58275 717.38352 376.41644 721.33946 376.77644 725.29546 C 376.85444 726.15246 377.01175 727.69021 377.07175 728.48921 C 377.49175 734.0092 377.44387 739.89009 377.24987 742.68608 L 377.21081 743.25952 L 376.63581 743.26421 C 370.84582 743.31221 365.35256 742.39127 363.30456 742.00327 C 363.41056 743.06727 363.56862 745.03165 363.56862 747.36264 C 363.56862 749.87064 363.48237 751.47877 363.41237 752.36577 z M 364.48269 751.14858 C 364.52669 750.22358 364.56081 748.97564 364.56081 747.36264 C 364.56081 745.74965 364.48869 744.30752 364.40769 743.20952 C 367.02968 743.65152 371.73063 744.29739 376.64362 744.25639 L 378.13737 744.24546 L 378.2405 742.75327 C 378.4365 739.93127 378.48537 733.98764 378.06237 728.41264 C 378.00137 727.61165 377.84506 726.06583 377.76706 725.20483 C 377.47706 722.02584 376.88569 718.84439 376.45769 716.80639 C 377.51369 716.89939 378.48644 716.96402 379.27644 716.99702 C 380.33044 717.03902 381.0725 717.02064 381.2905 717.01265 C 381.5065 717.02064 382.24744 717.03902 383.30144 716.99702 C 384.09144 716.96402 385.06475 716.89939 386.12175 716.80639 C 385.69275 718.84439 385.10237 722.02584 384.81237 725.20483 C 384.73537 726.06583 384.5775 727.61165 384.5155 728.41264 C 384.0945 733.98764 384.14137 739.93127 384.33737 742.75327 L 384.44206 744.24546 L 385.93581 744.25639 C 390.84881 744.29739 395.54975 743.65152 398.17175 743.20952 C 398.09075 744.30752 398.01706 745.74965 398.01706 747.36264 C 398.01706 748.97564 398.05275 750.22358 398.09675 751.14858 C 396.15275 750.78858 393.12718 750.27971 390.17019 750.00171 C 385.50419 749.56171 381.68906 749.61246 381.29206 749.62046 C 380.91706 749.61246 377.09068 749.55971 372.40769 750.00171 C 369.45169 750.27971 366.42568 750.78858 364.48269 751.14858 z M 416.91237 732.52046 C 410.02538 732.52046 408.4155 727.03189 408.4155 723.69389 C 408.4155 718.3439 411.94244 715.00952 417.07644 715.00952 C 420.74543 715.00952 423.18425 716.92496 424.08425 717.65796 L 424.08425 723.92983 L 416.91237 723.92983 L 416.91237 721.9189 L 421.90769 721.9189 L 421.90769 718.77358 C 421.50369 718.43958 419.53925 717.02046 416.95925 717.02046 C 415.30125 717.02046 413.47987 717.58765 412.27487 718.91264 C 411.08988 720.23864 410.73425 722.03808 410.73425 723.83608 C 410.73425 725.49308 411.18538 730.6064 416.91237 730.6064 C 420.77037 730.6064 421.50281 728.00164 421.81081 726.93764 L 423.82331 727.50483 C 423.51631 728.71183 422.56837 732.52046 416.91237 732.52046 z M 455.35925 732.52046 C 451.59625 732.52046 449.41862 730.46408 449.41862 727.83608 C 449.41862 724.45109 452.75669 723.67014 454.95769 723.15014 C 458.38868 722.32115 460.09362 721.89496 460.09362 719.90796 C 460.09362 718.01396 458.22256 717.02046 455.87956 717.02046 C 454.62456 717.02046 452.28237 717.37502 451.33737 719.19702 C 451.00437 719.83502 450.90837 720.54515 450.88737 720.92514 L 448.75456 720.73452 C 448.77856 720.28452 448.80369 719.57527 449.18269 718.65327 C 450.05869 716.56827 451.90332 715.00952 455.97331 715.00952 C 459.83231 715.00952 462.24675 717.25659 462.24675 720.07358 C 462.24675 723.78858 458.69518 724.59383 455.59519 725.27983 C 452.49519 725.96583 451.54831 726.50971 451.54831 727.97671 C 451.54831 730.08471 453.98756 730.50952 455.45456 730.50952 C 458.95856 730.50952 459.45431 728.49989 459.57331 727.26889 L 461.72331 727.43452 C 461.60731 730.77152 459.00525 732.52046 455.35925 732.52046 z M 470.88112 732.52046 C 467.11813 732.52046 464.94206 730.46408 464.94206 727.83608 C 464.94206 724.45109 468.27956 723.67014 470.47956 723.15014 C 473.91056 722.32115 475.6155 721.89496 475.6155 719.90796 C 475.6155 718.01396 473.74443 717.02046 471.40144 717.02046 C 470.14744 717.02046 467.80369 717.37502 466.85769 719.19702 C 466.52569 719.83502 466.43225 720.54515 466.40925 720.92514 L 464.278 720.73452 C 464.302 720.28452 464.32456 719.57527 464.70456 718.65327 C 465.58056 716.56827 467.42632 715.00952 471.49831 715.00952 C 475.35631 715.00952 477.76862 717.25659 477.76862 720.07358 C 477.76862 723.78858 474.21862 724.59383 471.11862 725.27983 C 468.01763 725.96583 467.07175 726.50971 467.07175 727.97671 C 467.07175 730.08471 469.50944 730.50952 470.97644 730.50952 C 474.47943 730.50952 474.97619 728.49989 475.09519 727.26889 L 477.24831 727.43452 C 477.12931 730.77152 474.52712 732.52046 470.88112 732.52046 z M 427.77644 732.23764 L 427.77644 715.29233 L 430.02487 715.29233 L 430.02487 732.23764 L 427.77644 732.23764 z M 434.5655 732.23764 L 434.5655 715.29233 L 447.22644 715.29233 L 447.22644 717.30327 L 436.8155 717.30327 L 436.8155 723.03139 L 446.18581 723.03139 L 446.18581 725.0439 L 436.8155 725.0439 L 436.8155 730.22671 L 446.82331 730.22671 L 446.82331 732.23764 L 434.5655 732.23764 z M 480.01862 732.23764 L 480.01862 715.29077 L 492.68112 715.29077 L 492.68112 717.30327 L 482.2655 717.30327 L 482.2655 723.02827 L 491.63737 723.02827 L 491.63737 725.04077 L 482.2655 725.04077 L 482.2655 730.22514 L 492.27644 730.22514 L 492.27644 732.23764 L 480.01862 732.23764 z M 495.803 732.23764 L 495.803 715.29077 L 497.93425 715.29077 L 497.93425 728.59077 L 497.98269 728.59077 L 506.83269 715.29077 L 509.12956 715.29077 L 509.12956 732.23764 L 506.99831 732.23764 L 506.99831 718.93452 L 506.95144 718.93452 L 498.09831 732.23764 L 495.803 732.23764 z "
     transform="matrix(1.25,0,0,-1.25,-415.55453,984.98065)"
     inkscape:label="logo" />
</svg>
